P3
2 2
255
31
15
94
15
31
94
63
31
46
31
63
46
